<svg xmlns="http://www.w3.org/2000/svg" id="export" class="canvas" preserveAspectRatio="xMidYMid meet" style="position: absolute; margin: 0px;" width="136" height="1023"><rect id="background" fill="#fff" pointer-events="all" width="136" height="1023"/><g id="origin" transform="translate(6.171484375, 6.171484375) scale(1)"><g id="clusters" class="clusters"/><g id="edge-paths" class="edge-paths"><defs><marker id="arrowhead-vee" viewBox="0 0 10 10" refX="9" refY="5" markerUnits="strokeWidth" markerWidth="8" markerHeight="6" orient="auto" style="fill: rgb(0, 0, 0);"><path d="M 0 0 L 10 5 L 0 10 L 4 5 z" style="stroke-width: 1;"/></marker><marker id="arrowhead-vee-select" viewBox="0 0 10 10" refX="9" refY="5" markerUnits="strokeWidth" markerWidth="8" markerHeight="6" orient="auto" style="fill: rgb(238, 0, 0);"><path d="M 0 0 L 10 5 L 0 10 L 4 5 z" style="stroke-width: 1;"/></marker></defs><path class="edge-path" d="M59.6640625,20L59.6640625,23.416666666666668C59.6640625,26.833333333333332,59.6640625,33.666666666666664,59.6640625,40.5C59.6640625,47.333333333333336,59.6640625,54.166666666666664,59.6640625,57.583333333333336L59.6640625,61" id="edge-imageinput" style="stroke: rgb(0, 0, 0); stroke-width: 1px; fill: none; marker-end: url(&quot;#arrowhead-vee&quot;);"/><path class="edge-path" d="M59.6640625,99L59.6640625,100.66666666666667C59.6640625,102.33333333333333,59.6640625,105.66666666666667,59.6640625,109C59.6640625,112.33333333333333,59.6640625,115.66666666666667,59.6640625,117.33333333333333L59.6640625,119" id="edge-imageinput_Sub" style="stroke: rgb(0, 0, 0); stroke-width: 1px; fill: none; marker-end: url(&quot;#arrowhead-vee&quot;);"/><path class="edge-path" d="M59.6640625,169L59.6640625,170.66666666666666C59.6640625,172.33333333333334,59.6640625,175.66666666666666,59.6640625,179C59.6640625,182.33333333333334,59.6640625,185.66666666666666,59.6640625,187.33333333333334L59.6640625,189" id="edge-conv_1" style="stroke: rgb(0, 0, 0); stroke-width: 1px; fill: none; marker-end: url(&quot;#arrowhead-vee&quot;);"/><path class="edge-path" d="M59.6640625,239L59.6640625,240.66666666666666C59.6640625,242.33333333333334,59.6640625,245.66666666666666,59.6640625,249C59.6640625,252.33333333333334,59.6640625,255.66666666666666,59.6640625,257.3333333333333L59.6640625,259" id="edge-conv_2" style="stroke: rgb(0, 0, 0); stroke-width: 1px; fill: none; marker-end: url(&quot;#arrowhead-vee&quot;);"/><path class="edge-path" d="M59.6640625,279L59.6640625,280.6666666666667C59.6640625,282.3333333333333,59.6640625,285.6666666666667,59.6640625,289C59.6640625,292.3333333333333,59.6640625,295.6666666666667,59.6640625,297.3333333333333L59.6640625,299" id="edge-relu_1" style="stroke: rgb(0, 0, 0); stroke-width: 1px; fill: none; marker-end: url(&quot;#arrowhead-vee&quot;);"/><path class="edge-path" d="M59.6640625,319L59.6640625,320.6666666666667C59.6640625,322.3333333333333,59.6640625,325.6666666666667,59.6640625,329C59.6640625,332.3333333333333,59.6640625,335.6666666666667,59.6640625,337.3333333333333L59.6640625,339" id="edge-avgpool2d_1" style="stroke: rgb(0, 0, 0); stroke-width: 1px; fill: none; marker-end: url(&quot;#arrowhead-vee&quot;);"/><path class="edge-path" d="M59.6640625,389L59.6640625,390.6666666666667C59.6640625,392.3333333333333,59.6640625,395.6666666666667,59.6640625,399C59.6640625,402.3333333333333,59.6640625,405.6666666666667,59.6640625,407.3333333333333L59.6640625,409" id="edge-conv_3" style="stroke: rgb(0, 0, 0); stroke-width: 1px; fill: none; marker-end: url(&quot;#arrowhead-vee&quot;);"/><path class="edge-path" d="M59.6640625,459L59.6640625,460.6666666666667C59.6640625,462.3333333333333,59.6640625,465.6666666666667,59.6640625,469C59.6640625,472.3333333333333,59.6640625,475.6666666666667,59.6640625,477.3333333333333L59.6640625,479" id="edge-conv_4" style="stroke: rgb(0, 0, 0); stroke-width: 1px; fill: none; marker-end: url(&quot;#arrowhead-vee&quot;);"/><path class="edge-path" d="M59.6640625,499L59.6640625,500.6666666666667C59.6640625,502.3333333333333,59.6640625,505.6666666666667,59.6640625,509C59.6640625,512.3333333333334,59.6640625,515.6666666666666,59.6640625,517.3333333333334L59.6640625,519" id="edge-relu_2" style="stroke: rgb(0, 0, 0); stroke-width: 1px; fill: none; marker-end: url(&quot;#arrowhead-vee&quot;);"/><path class="edge-path" d="M59.6640625,539L59.6640625,540.6666666666666C59.6640625,542.3333333333334,59.6640625,545.6666666666666,59.6640625,549C59.6640625,552.3333333333334,59.6640625,555.6666666666666,59.6640625,557.3333333333334L59.6640625,559" id="edge-avgpool2d_2" style="stroke: rgb(0, 0, 0); stroke-width: 1px; fill: none; marker-end: url(&quot;#arrowhead-vee&quot;);"/><path class="edge-path" d="M59.6640625,609L59.6640625,610.6666666666666C59.6640625,612.3333333333334,59.6640625,615.6666666666666,59.6640625,619C59.6640625,622.3333333333334,59.6640625,625.6666666666666,59.6640625,627.3333333333334L59.6640625,629" id="edge-conv_5" style="stroke: rgb(0, 0, 0); stroke-width: 1px; fill: none; marker-end: url(&quot;#arrowhead-vee&quot;);"/><path class="edge-path" d="M59.6640625,679L59.6640625,680.6666666666666C59.6640625,682.3333333333334,59.6640625,685.6666666666666,59.6640625,689C59.6640625,692.3333333333334,59.6640625,695.6666666666666,59.6640625,697.3333333333334L59.6640625,699" id="edge-conv_6" style="stroke: rgb(0, 0, 0); stroke-width: 1px; fill: none; marker-end: url(&quot;#arrowhead-vee&quot;);"/><path class="edge-path" d="M59.6640625,719L59.6640625,720.6666666666666C59.6640625,722.3333333333334,59.6640625,725.6666666666666,59.6640625,729C59.6640625,732.3333333333334,59.6640625,735.6666666666666,59.6640625,737.3333333333334L59.6640625,739" id="edge-relu_3" style="stroke: rgb(0, 0, 0); stroke-width: 1px; fill: none; marker-end: url(&quot;#arrowhead-vee&quot;);"/><path class="edge-path" d="M59.6640625,759L59.6640625,760.6666666666666C59.6640625,762.3333333333334,59.6640625,765.6666666666666,59.6640625,769C59.6640625,772.3333333333334,59.6640625,775.6666666666666,59.6640625,777.3333333333334L59.6640625,779" id="edge-avgpool2d_3" style="stroke: rgb(0, 0, 0); stroke-width: 1px; fill: none; marker-end: url(&quot;#arrowhead-vee&quot;);"/><path class="edge-path" d="M59.6640625,829L59.6640625,830.6666666666666C59.6640625,832.3333333333334,59.6640625,835.6666666666666,59.6640625,839C59.6640625,842.3333333333334,59.6640625,845.6666666666666,59.6640625,847.3333333333334L59.6640625,849" id="edge-conv_7" style="stroke: rgb(0, 0, 0); stroke-width: 1px; fill: none; marker-end: url(&quot;#arrowhead-vee&quot;);"/><path class="edge-path" d="M59.6640625,869L59.6640625,870.6666666666666C59.6640625,872.3333333333334,59.6640625,875.6666666666666,59.6640625,879C59.6640625,882.3333333333334,59.6640625,885.6666666666666,59.6640625,887.3333333333334L59.6640625,889" id="edge-softmax_Transpose1" style="stroke: rgb(0, 0, 0); stroke-width: 1px; fill: none; marker-end: url(&quot;#arrowhead-vee&quot;);"/><path class="edge-path" d="M59.6640625,909L59.6640625,910.6666666666666C59.6640625,912.3333333333334,59.6640625,915.6666666666666,59.6640625,919C59.6640625,922.3333333333334,59.6640625,925.6666666666666,59.6640625,927.3333333333334L59.6640625,929" id="edge-softmax" style="stroke: rgb(0, 0, 0); stroke-width: 1px; fill: none; marker-end: url(&quot;#arrowhead-vee&quot;);"/><path class="edge-path" d="M59.6640625,949L59.6640625,952.4166666666666C59.6640625,955.8333333333334,59.6640625,962.6666666666666,59.6640625,969.5C59.6640625,976.3333333333334,59.6640625,983.1666666666666,59.6640625,986.5833333333334L59.6640625,990" id="edge-softmax_Transpose2" style="stroke: rgb(0, 0, 0); stroke-width: 1px; fill: none; marker-end: url(&quot;#arrowhead-vee&quot;);"/></g><g id="edge-labels" class="edge-labels"><g class="edge-label" transform="translate(91.2265625,40.5)" style="opacity: 1;"><g transform="translate(-26.5625,-5.5)"><text style="font-family: -apple-system, BlinkMacSystemFont, &quot;Segoe WPC&quot;, &quot;Segoe UI&quot;, Ubuntu, &quot;Droid Sans&quot;, sans-serif, &quot;PingFang SC&quot;; font-size: 10px;"><tspan xml:space="preserve" dy="1em" x="1">1×1×64×84</tspan></text></g></g><g class="edge-label" transform="translate(94.046875,969.5)" style="opacity: 1;"><g transform="translate(-29.3828125,-5.5)"><text style="font-family: -apple-system, BlinkMacSystemFont, &quot;Segoe WPC&quot;, &quot;Segoe UI&quot;, Ubuntu, &quot;Droid Sans&quot;, sans-serif, &quot;PingFang SC&quot;; font-size: 10px;"><tspan xml:space="preserve" dy="1em" x="1">1×11×64×84</tspan></text></g></g></g><g id="nodes" class="nodes"><g id="node-imageinput_Sub" class="node graph-node" transform="translate(59.6640625,80)" style="opacity: 1;"><g transform="translate(-50,-19)"><g><g class="node-item node-item-type" transform="translate(0,0)"><path d="M5,0h90a5,5 0 0 1 5,5v15a0,0 0 0 1 0,0h-100a0,0 0 0 1 0,0v-15a5,5 0 0 1 5,-5z" style="stroke: rgb(0, 0, 0); fill: rgb(0, 0, 0); stroke-width: 0;"/><text x="6" y="14" style="font-family: -apple-system, BlinkMacSystemFont, &quot;Segoe WPC&quot;, &quot;Segoe UI&quot;, Ubuntu, &quot;Droid Sans&quot;, sans-serif, &quot;PingFang SC&quot;; font-size: 11px; text-rendering: geometricprecision; fill: rgb(255, 255, 255);">Sub</text><title>imageinput_Sub</title></g><g class="node-attribute" transform="translate(0,20)"><path d="M0,0h100a0,0 0 0 1 0,0v13a5,5 0 0 1 -5,5h-90a5,5 0 0 1 -5,-5v-13a0,0 0 0 1 0,0z" style="stroke: rgb(0, 0, 0); fill: rgb(255, 255, 255); stroke-width: 0;"/><text id="initializer-imageinput_Mean" xml:space="preserve" x="6" y="12" style="font-family: -apple-system, BlinkMacSystemFont, &quot;Segoe WPC&quot;, &quot;Segoe UI&quot;, Ubuntu, &quot;Droid Sans&quot;, sans-serif, &quot;PingFang SC&quot;; font-size: 9px; font-weight: normal; text-rendering: geometricprecision;"><title>float32[1,1,1,1]</title><tspan style="font-weight: bold;">B</tspan><tspan>〈1×1×1×1〉</tspan></text><line class="node" x1="0" x2="100" y1="0" y2="0" style="stroke: rgb(51, 51, 51); fill: none; stroke-width: 1px;"/></g><path class="node border" d="M5,0h90a5,5 0 0 1 5,5v28a5,5 0 0 1 -5,5h-90a5,5 0 0 1 -5,-5v-28a5,5 0 0 1 5,-5z" style="stroke: rgb(51, 51, 51); fill: none; stroke-width: 1px;"/></g></g></g><g id="node-conv_1" class="node graph-node" transform="translate(59.6640625,144)" style="opacity: 1;"><g transform="translate(-50,-25)"><g><g class="node-item node-item-type node-item-type-layer" transform="translate(0,0)"><path d="M5,0h90a5,5 0 0 1 5,5v15a0,0 0 0 1 0,0h-100a0,0 0 0 1 0,0v-15a5,5 0 0 1 5,-5z" style="stroke: rgb(0, 0, 0); fill: rgb(51, 85, 136); stroke-width: 0;"/><text x="6" y="14" style="font-family: -apple-system, BlinkMacSystemFont, &quot;Segoe WPC&quot;, &quot;Segoe UI&quot;, Ubuntu, &quot;Droid Sans&quot;, sans-serif, &quot;PingFang SC&quot;; font-size: 11px; text-rendering: geometricprecision; fill: rgb(255, 255, 255);">Conv</text><title>conv_1</title></g><g class="node-attribute" transform="translate(0,20)"><path d="M0,0h100a0,0 0 0 1 0,0v25a5,5 0 0 1 -5,5h-90a5,5 0 0 1 -5,-5v-25a0,0 0 0 1 0,0z" style="stroke: rgb(0, 0, 0); fill: rgb(255, 255, 255); stroke-width: 0;"/><text id="initializer-conv_1_W" xml:space="preserve" x="6" y="12" style="font-family: -apple-system, BlinkMacSystemFont, &quot;Segoe WPC&quot;, &quot;Segoe UI&quot;, Ubuntu, &quot;Droid Sans&quot;, sans-serif, &quot;PingFang SC&quot;; font-size: 9px; font-weight: normal; text-rendering: geometricprecision;"><title>float32[128,1,3,3]</title><tspan style="font-weight: bold;">W</tspan><tspan>〈128×1×3×3〉</tspan></text><text id="initializer-conv_1_B" xml:space="preserve" x="6" y="24" style="font-family: -apple-system, BlinkMacSystemFont, &quot;Segoe WPC&quot;, &quot;Segoe UI&quot;, Ubuntu, &quot;Droid Sans&quot;, sans-serif, &quot;PingFang SC&quot;; font-size: 9px; font-weight: normal; text-rendering: geometricprecision;"><title>float32[128]</title><tspan style="font-weight: bold;">B</tspan><tspan>〈128〉</tspan></text><line class="node" x1="0" x2="100" y1="0" y2="0" style="stroke: rgb(51, 51, 51); fill: none; stroke-width: 1px;"/></g><path class="node border" d="M5,0h90a5,5 0 0 1 5,5v40a5,5 0 0 1 -5,5h-90a5,5 0 0 1 -5,-5v-40a5,5 0 0 1 5,-5z" style="stroke: rgb(51, 51, 51); fill: none; stroke-width: 1px;"/></g></g></g><g id="node-conv_2" class="node graph-node" transform="translate(59.6640625,214)" style="opacity: 1;"><g transform="translate(-50,-25)"><g><g class="node-item node-item-type node-item-type-layer" transform="translate(0,0)"><path d="M5,0h90a5,5 0 0 1 5,5v15a0,0 0 0 1 0,0h-100a0,0 0 0 1 0,0v-15a5,5 0 0 1 5,-5z" style="stroke: rgb(0, 0, 0); fill: rgb(51, 85, 136); stroke-width: 0;"/><text x="6" y="14" style="font-family: -apple-system, BlinkMacSystemFont, &quot;Segoe WPC&quot;, &quot;Segoe UI&quot;, Ubuntu, &quot;Droid Sans&quot;, sans-serif, &quot;PingFang SC&quot;; font-size: 11px; text-rendering: geometricprecision; fill: rgb(255, 255, 255);">Conv</text><title>conv_2</title></g><g class="node-attribute" transform="translate(0,20)"><path d="M0,0h100a0,0 0 0 1 0,0v25a5,5 0 0 1 -5,5h-90a5,5 0 0 1 -5,-5v-25a0,0 0 0 1 0,0z" style="stroke: rgb(0, 0, 0); fill: rgb(255, 255, 255); stroke-width: 0;"/><text id="initializer-conv_2_W" xml:space="preserve" x="6" y="12" style="font-family: -apple-system, BlinkMacSystemFont, &quot;Segoe WPC&quot;, &quot;Segoe UI&quot;, Ubuntu, &quot;Droid Sans&quot;, sans-serif, &quot;PingFang SC&quot;; font-size: 9px; font-weight: normal; text-rendering: geometricprecision;"><title>float32[128,128,3,3]</title><tspan style="font-weight: bold;">W</tspan><tspan>〈128×128×3×3〉</tspan></text><text id="initializer-conv_2_B" xml:space="preserve" x="6" y="24" style="font-family: -apple-system, BlinkMacSystemFont, &quot;Segoe WPC&quot;, &quot;Segoe UI&quot;, Ubuntu, &quot;Droid Sans&quot;, sans-serif, &quot;PingFang SC&quot;; font-size: 9px; font-weight: normal; text-rendering: geometricprecision;"><title>float32[128]</title><tspan style="font-weight: bold;">B</tspan><tspan>〈128〉</tspan></text><line class="node" x1="0" x2="100" y1="0" y2="0" style="stroke: rgb(51, 51, 51); fill: none; stroke-width: 1px;"/></g><path class="node border" d="M5,0h90a5,5 0 0 1 5,5v40a5,5 0 0 1 -5,5h-90a5,5 0 0 1 -5,-5v-40a5,5 0 0 1 5,-5z" style="stroke: rgb(51, 51, 51); fill: none; stroke-width: 1px;"/></g></g></g><g id="node-relu_1" class="node graph-node" transform="translate(59.6640625,269)" style="opacity: 1;"><g transform="translate(-19.0390625,-10)"><g><g class="node-item node-item-type node-item-type-activation" transform="translate(0,0)"><path d="M5,0h28.078125a5,5 0 0 1 5,5v10a5,5 0 0 1 -5,5h-28.078125a5,5 0 0 1 -5,-5v-10a5,5 0 0 1 5,-5z" style="stroke: rgb(0, 0, 0); fill: rgb(75, 27, 22); stroke-width: 0;"/><text x="6" y="14" style="font-family: -apple-system, BlinkMacSystemFont, &quot;Segoe WPC&quot;, &quot;Segoe UI&quot;, Ubuntu, &quot;Droid Sans&quot;, sans-serif, &quot;PingFang SC&quot;; font-size: 11px; text-rendering: geometricprecision; fill: rgb(255, 255, 255);">Relu</text><title>relu_1</title></g><path class="node border" d="M5,0h28.078125a5,5 0 0 1 5,5v10a5,5 0 0 1 -5,5h-28.078125a5,5 0 0 1 -5,-5v-10a5,5 0 0 1 5,-5z" style="stroke: rgb(51, 51, 51); fill: none; stroke-width: 1px;"/></g></g></g><g id="node-avgpool2d_1" class="node graph-node" transform="translate(59.6640625,309)" style="opacity: 1;"><g transform="translate(-39.7578125,-10)"><g><g class="node-item node-item-type node-item-type-pool" transform="translate(0,0)"><path d="M5,0h69.515625a5,5 0 0 1 5,5v10a5,5 0 0 1 -5,5h-69.515625a5,5 0 0 1 -5,-5v-10a5,5 0 0 1 5,-5z" style="stroke: rgb(0, 0, 0); fill: rgb(51, 85, 51); stroke-width: 0;"/><text x="6" y="14" style="font-family: -apple-system, BlinkMacSystemFont, &quot;Segoe WPC&quot;, &quot;Segoe UI&quot;, Ubuntu, &quot;Droid Sans&quot;, sans-serif, &quot;PingFang SC&quot;; font-size: 11px; text-rendering: geometricprecision; fill: rgb(255, 255, 255);">AveragePool</text><title>avgpool2d_1</title></g><path class="node border" d="M5,0h69.515625a5,5 0 0 1 5,5v10a5,5 0 0 1 -5,5h-69.515625a5,5 0 0 1 -5,-5v-10a5,5 0 0 1 5,-5z" style="stroke: rgb(51, 51, 51); fill: none; stroke-width: 1px;"/></g></g></g><g id="node-conv_3" class="node graph-node" transform="translate(59.6640625,364)" style="opacity: 1;"><g transform="translate(-50,-25)"><g><g class="node-item node-item-type node-item-type-layer" transform="translate(0,0)"><path d="M5,0h90a5,5 0 0 1 5,5v15a0,0 0 0 1 0,0h-100a0,0 0 0 1 0,0v-15a5,5 0 0 1 5,-5z" style="stroke: rgb(0, 0, 0); fill: rgb(51, 85, 136); stroke-width: 0;"/><text x="6" y="14" style="font-family: -apple-system, BlinkMacSystemFont, &quot;Segoe WPC&quot;, &quot;Segoe UI&quot;, Ubuntu, &quot;Droid Sans&quot;, sans-serif, &quot;PingFang SC&quot;; font-size: 11px; text-rendering: geometricprecision; fill: rgb(255, 255, 255);">Conv</text><title>conv_3</title></g><g class="node-attribute" transform="translate(0,20)"><path d="M0,0h100a0,0 0 0 1 0,0v25a5,5 0 0 1 -5,5h-90a5,5 0 0 1 -5,-5v-25a0,0 0 0 1 0,0z" style="stroke: rgb(0, 0, 0); fill: rgb(255, 255, 255); stroke-width: 0;"/><text id="initializer-conv_3_W" xml:space="preserve" x="6" y="12" style="font-family: -apple-system, BlinkMacSystemFont, &quot;Segoe WPC&quot;, &quot;Segoe UI&quot;, Ubuntu, &quot;Droid Sans&quot;, sans-serif, &quot;PingFang SC&quot;; font-size: 9px; font-weight: normal; text-rendering: geometricprecision;"><title>float32[256,128,3,3]</title><tspan style="font-weight: bold;">W</tspan><tspan>〈256×128×3×3〉</tspan></text><text id="initializer-conv_3_B" xml:space="preserve" x="6" y="24" style="font-family: -apple-system, BlinkMacSystemFont, &quot;Segoe WPC&quot;, &quot;Segoe UI&quot;, Ubuntu, &quot;Droid Sans&quot;, sans-serif, &quot;PingFang SC&quot;; font-size: 9px; font-weight: normal; text-rendering: geometricprecision;"><title>float32[256]</title><tspan style="font-weight: bold;">B</tspan><tspan>〈256〉</tspan></text><line class="node" x1="0" x2="100" y1="0" y2="0" style="stroke: rgb(51, 51, 51); fill: none; stroke-width: 1px;"/></g><path class="node border" d="M5,0h90a5,5 0 0 1 5,5v40a5,5 0 0 1 -5,5h-90a5,5 0 0 1 -5,-5v-40a5,5 0 0 1 5,-5z" style="stroke: rgb(51, 51, 51); fill: none; stroke-width: 1px;"/></g></g></g><g id="node-conv_4" class="node graph-node" transform="translate(59.6640625,434)" style="opacity: 1;"><g transform="translate(-50,-25)"><g><g class="node-item node-item-type node-item-type-layer" transform="translate(0,0)"><path d="M5,0h90a5,5 0 0 1 5,5v15a0,0 0 0 1 0,0h-100a0,0 0 0 1 0,0v-15a5,5 0 0 1 5,-5z" style="stroke: rgb(0, 0, 0); fill: rgb(51, 85, 136); stroke-width: 0;"/><text x="6" y="14" style="font-family: -apple-system, BlinkMacSystemFont, &quot;Segoe WPC&quot;, &quot;Segoe UI&quot;, Ubuntu, &quot;Droid Sans&quot;, sans-serif, &quot;PingFang SC&quot;; font-size: 11px; text-rendering: geometricprecision; fill: rgb(255, 255, 255);">Conv</text><title>conv_4</title></g><g class="node-attribute" transform="translate(0,20)"><path d="M0,0h100a0,0 0 0 1 0,0v25a5,5 0 0 1 -5,5h-90a5,5 0 0 1 -5,-5v-25a0,0 0 0 1 0,0z" style="stroke: rgb(0, 0, 0); fill: rgb(255, 255, 255); stroke-width: 0;"/><text id="initializer-conv_4_W" xml:space="preserve" x="6" y="12" style="font-family: -apple-system, BlinkMacSystemFont, &quot;Segoe WPC&quot;, &quot;Segoe UI&quot;, Ubuntu, &quot;Droid Sans&quot;, sans-serif, &quot;PingFang SC&quot;; font-size: 9px; font-weight: normal; text-rendering: geometricprecision;"><title>float32[256,256,3,3]</title><tspan style="font-weight: bold;">W</tspan><tspan>〈256×256×3×3〉</tspan></text><text id="initializer-conv_4_B" xml:space="preserve" x="6" y="24" style="font-family: -apple-system, BlinkMacSystemFont, &quot;Segoe WPC&quot;, &quot;Segoe UI&quot;, Ubuntu, &quot;Droid Sans&quot;, sans-serif, &quot;PingFang SC&quot;; font-size: 9px; font-weight: normal; text-rendering: geometricprecision;"><title>float32[256]</title><tspan style="font-weight: bold;">B</tspan><tspan>〈256〉</tspan></text><line class="node" x1="0" x2="100" y1="0" y2="0" style="stroke: rgb(51, 51, 51); fill: none; stroke-width: 1px;"/></g><path class="node border" d="M5,0h90a5,5 0 0 1 5,5v40a5,5 0 0 1 -5,5h-90a5,5 0 0 1 -5,-5v-40a5,5 0 0 1 5,-5z" style="stroke: rgb(51, 51, 51); fill: none; stroke-width: 1px;"/></g></g></g><g id="node-relu_2" class="node graph-node" transform="translate(59.6640625,489)" style="opacity: 1;"><g transform="translate(-19.0390625,-10)"><g><g class="node-item node-item-type node-item-type-activation" transform="translate(0,0)"><path d="M5,0h28.078125a5,5 0 0 1 5,5v10a5,5 0 0 1 -5,5h-28.078125a5,5 0 0 1 -5,-5v-10a5,5 0 0 1 5,-5z" style="stroke: rgb(0, 0, 0); fill: rgb(75, 27, 22); stroke-width: 0;"/><text x="6" y="14" style="font-family: -apple-system, BlinkMacSystemFont, &quot;Segoe WPC&quot;, &quot;Segoe UI&quot;, Ubuntu, &quot;Droid Sans&quot;, sans-serif, &quot;PingFang SC&quot;; font-size: 11px; text-rendering: geometricprecision; fill: rgb(255, 255, 255);">Relu</text><title>relu_2</title></g><path class="node border" d="M5,0h28.078125a5,5 0 0 1 5,5v10a5,5 0 0 1 -5,5h-28.078125a5,5 0 0 1 -5,-5v-10a5,5 0 0 1 5,-5z" style="stroke: rgb(51, 51, 51); fill: none; stroke-width: 1px;"/></g></g></g><g id="node-avgpool2d_2" class="node graph-node" transform="translate(59.6640625,529)" style="opacity: 1;"><g transform="translate(-39.7578125,-10)"><g><g class="node-item node-item-type node-item-type-pool" transform="translate(0,0)"><path d="M5,0h69.515625a5,5 0 0 1 5,5v10a5,5 0 0 1 -5,5h-69.515625a5,5 0 0 1 -5,-5v-10a5,5 0 0 1 5,-5z" style="stroke: rgb(0, 0, 0); fill: rgb(51, 85, 51); stroke-width: 0;"/><text x="6" y="14" style="font-family: -apple-system, BlinkMacSystemFont, &quot;Segoe WPC&quot;, &quot;Segoe UI&quot;, Ubuntu, &quot;Droid Sans&quot;, sans-serif, &quot;PingFang SC&quot;; font-size: 11px; text-rendering: geometricprecision; fill: rgb(255, 255, 255);">AveragePool</text><title>avgpool2d_2</title></g><path class="node border" d="M5,0h69.515625a5,5 0 0 1 5,5v10a5,5 0 0 1 -5,5h-69.515625a5,5 0 0 1 -5,-5v-10a5,5 0 0 1 5,-5z" style="stroke: rgb(51, 51, 51); fill: none; stroke-width: 1px;"/></g></g></g><g id="node-conv_5" class="node graph-node" transform="translate(59.6640625,584)" style="opacity: 1;"><g transform="translate(-50,-25)"><g><g class="node-item node-item-type node-item-type-layer" transform="translate(0,0)"><path d="M5,0h90a5,5 0 0 1 5,5v15a0,0 0 0 1 0,0h-100a0,0 0 0 1 0,0v-15a5,5 0 0 1 5,-5z" style="stroke: rgb(0, 0, 0); fill: rgb(51, 85, 136); stroke-width: 0;"/><text x="6" y="14" style="font-family: -apple-system, BlinkMacSystemFont, &quot;Segoe WPC&quot;, &quot;Segoe UI&quot;, Ubuntu, &quot;Droid Sans&quot;, sans-serif, &quot;PingFang SC&quot;; font-size: 11px; text-rendering: geometricprecision; fill: rgb(255, 255, 255);">Conv</text><title>conv_5</title></g><g class="node-attribute" transform="translate(0,20)"><path d="M0,0h100a0,0 0 0 1 0,0v25a5,5 0 0 1 -5,5h-90a5,5 0 0 1 -5,-5v-25a0,0 0 0 1 0,0z" style="stroke: rgb(0, 0, 0); fill: rgb(255, 255, 255); stroke-width: 0;"/><text id="initializer-conv_5_W" xml:space="preserve" x="6" y="12" style="font-family: -apple-system, BlinkMacSystemFont, &quot;Segoe WPC&quot;, &quot;Segoe UI&quot;, Ubuntu, &quot;Droid Sans&quot;, sans-serif, &quot;PingFang SC&quot;; font-size: 9px; font-weight: normal; text-rendering: geometricprecision;"><title>float32[512,256,3,3]</title><tspan style="font-weight: bold;">W</tspan><tspan>〈512×256×3×3〉</tspan></text><text id="initializer-conv_5_B" xml:space="preserve" x="6" y="24" style="font-family: -apple-system, BlinkMacSystemFont, &quot;Segoe WPC&quot;, &quot;Segoe UI&quot;, Ubuntu, &quot;Droid Sans&quot;, sans-serif, &quot;PingFang SC&quot;; font-size: 9px; font-weight: normal; text-rendering: geometricprecision;"><title>float32[512]</title><tspan style="font-weight: bold;">B</tspan><tspan>〈512〉</tspan></text><line class="node" x1="0" x2="100" y1="0" y2="0" style="stroke: rgb(51, 51, 51); fill: none; stroke-width: 1px;"/></g><path class="node border" d="M5,0h90a5,5 0 0 1 5,5v40a5,5 0 0 1 -5,5h-90a5,5 0 0 1 -5,-5v-40a5,5 0 0 1 5,-5z" style="stroke: rgb(51, 51, 51); fill: none; stroke-width: 1px;"/></g></g></g><g id="node-conv_6" class="node graph-node" transform="translate(59.6640625,654)" style="opacity: 1;"><g transform="translate(-50,-25)"><g><g class="node-item node-item-type node-item-type-layer" transform="translate(0,0)"><path d="M5,0h90a5,5 0 0 1 5,5v15a0,0 0 0 1 0,0h-100a0,0 0 0 1 0,0v-15a5,5 0 0 1 5,-5z" style="stroke: rgb(0, 0, 0); fill: rgb(51, 85, 136); stroke-width: 0;"/><text x="6" y="14" style="font-family: -apple-system, BlinkMacSystemFont, &quot;Segoe WPC&quot;, &quot;Segoe UI&quot;, Ubuntu, &quot;Droid Sans&quot;, sans-serif, &quot;PingFang SC&quot;; font-size: 11px; text-rendering: geometricprecision; fill: rgb(255, 255, 255);">Conv</text><title>conv_6</title></g><g class="node-attribute" transform="translate(0,20)"><path d="M0,0h100a0,0 0 0 1 0,0v25a5,5 0 0 1 -5,5h-90a5,5 0 0 1 -5,-5v-25a0,0 0 0 1 0,0z" style="stroke: rgb(0, 0, 0); fill: rgb(255, 255, 255); stroke-width: 0;"/><text id="initializer-conv_6_W" xml:space="preserve" x="6" y="12" style="font-family: -apple-system, BlinkMacSystemFont, &quot;Segoe WPC&quot;, &quot;Segoe UI&quot;, Ubuntu, &quot;Droid Sans&quot;, sans-serif, &quot;PingFang SC&quot;; font-size: 9px; font-weight: normal; text-rendering: geometricprecision;"><title>float32[512,512,3,3]</title><tspan style="font-weight: bold;">W</tspan><tspan>〈512×512×3×3〉</tspan></text><text id="initializer-conv_6_B" xml:space="preserve" x="6" y="24" style="font-family: -apple-system, BlinkMacSystemFont, &quot;Segoe WPC&quot;, &quot;Segoe UI&quot;, Ubuntu, &quot;Droid Sans&quot;, sans-serif, &quot;PingFang SC&quot;; font-size: 9px; font-weight: normal; text-rendering: geometricprecision;"><title>float32[512]</title><tspan style="font-weight: bold;">B</tspan><tspan>〈512〉</tspan></text><line class="node" x1="0" x2="100" y1="0" y2="0" style="stroke: rgb(51, 51, 51); fill: none; stroke-width: 1px;"/></g><path class="node border" d="M5,0h90a5,5 0 0 1 5,5v40a5,5 0 0 1 -5,5h-90a5,5 0 0 1 -5,-5v-40a5,5 0 0 1 5,-5z" style="stroke: rgb(51, 51, 51); fill: none; stroke-width: 1px;"/></g></g></g><g id="node-relu_3" class="node graph-node" transform="translate(59.6640625,709)" style="opacity: 1;"><g transform="translate(-19.0390625,-10)"><g><g class="node-item node-item-type node-item-type-activation" transform="translate(0,0)"><path d="M5,0h28.078125a5,5 0 0 1 5,5v10a5,5 0 0 1 -5,5h-28.078125a5,5 0 0 1 -5,-5v-10a5,5 0 0 1 5,-5z" style="stroke: rgb(0, 0, 0); fill: rgb(75, 27, 22); stroke-width: 0;"/><text x="6" y="14" style="font-family: -apple-system, BlinkMacSystemFont, &quot;Segoe WPC&quot;, &quot;Segoe UI&quot;, Ubuntu, &quot;Droid Sans&quot;, sans-serif, &quot;PingFang SC&quot;; font-size: 11px; text-rendering: geometricprecision; fill: rgb(255, 255, 255);">Relu</text><title>relu_3</title></g><path class="node border" d="M5,0h28.078125a5,5 0 0 1 5,5v10a5,5 0 0 1 -5,5h-28.078125a5,5 0 0 1 -5,-5v-10a5,5 0 0 1 5,-5z" style="stroke: rgb(51, 51, 51); fill: none; stroke-width: 1px;"/></g></g></g><g id="node-avgpool2d_3" class="node graph-node" transform="translate(59.6640625,749)" style="opacity: 1;"><g transform="translate(-39.7578125,-10)"><g><g class="node-item node-item-type node-item-type-pool" transform="translate(0,0)"><path d="M5,0h69.515625a5,5 0 0 1 5,5v10a5,5 0 0 1 -5,5h-69.515625a5,5 0 0 1 -5,-5v-10a5,5 0 0 1 5,-5z" style="stroke: rgb(0, 0, 0); fill: rgb(51, 85, 51); stroke-width: 0;"/><text x="6" y="14" style="font-family: -apple-system, BlinkMacSystemFont, &quot;Segoe WPC&quot;, &quot;Segoe UI&quot;, Ubuntu, &quot;Droid Sans&quot;, sans-serif, &quot;PingFang SC&quot;; font-size: 11px; text-rendering: geometricprecision; fill: rgb(255, 255, 255);">AveragePool</text><title>avgpool2d_3</title></g><path class="node border" d="M5,0h69.515625a5,5 0 0 1 5,5v10a5,5 0 0 1 -5,5h-69.515625a5,5 0 0 1 -5,-5v-10a5,5 0 0 1 5,-5z" style="stroke: rgb(51, 51, 51); fill: none; stroke-width: 1px;"/></g></g></g><g id="node-conv_7" class="node graph-node" transform="translate(59.6640625,804)" style="opacity: 1;"><g transform="translate(-50,-25)"><g><g class="node-item node-item-type node-item-type-layer" transform="translate(0,0)"><path d="M5,0h90a5,5 0 0 1 5,5v15a0,0 0 0 1 0,0h-100a0,0 0 0 1 0,0v-15a5,5 0 0 1 5,-5z" style="stroke: rgb(0, 0, 0); fill: rgb(51, 85, 136); stroke-width: 0;"/><text x="6" y="14" style="font-family: -apple-system, BlinkMacSystemFont, &quot;Segoe WPC&quot;, &quot;Segoe UI&quot;, Ubuntu, &quot;Droid Sans&quot;, sans-serif, &quot;PingFang SC&quot;; font-size: 11px; text-rendering: geometricprecision; fill: rgb(255, 255, 255);">Conv</text><title>conv_7</title></g><g class="node-attribute" transform="translate(0,20)"><path d="M0,0h100a0,0 0 0 1 0,0v25a5,5 0 0 1 -5,5h-90a5,5 0 0 1 -5,-5v-25a0,0 0 0 1 0,0z" style="stroke: rgb(0, 0, 0); fill: rgb(255, 255, 255); stroke-width: 0;"/><text id="initializer-conv_7_W" xml:space="preserve" x="6" y="12" style="font-family: -apple-system, BlinkMacSystemFont, &quot;Segoe WPC&quot;, &quot;Segoe UI&quot;, Ubuntu, &quot;Droid Sans&quot;, sans-serif, &quot;PingFang SC&quot;; font-size: 9px; font-weight: normal; text-rendering: geometricprecision;"><title>float32[11,512,1,1]</title><tspan style="font-weight: bold;">W</tspan><tspan>〈11×512×1×1〉</tspan></text><text id="initializer-conv_7_B" xml:space="preserve" x="6" y="24" style="font-family: -apple-system, BlinkMacSystemFont, &quot;Segoe WPC&quot;, &quot;Segoe UI&quot;, Ubuntu, &quot;Droid Sans&quot;, sans-serif, &quot;PingFang SC&quot;; font-size: 9px; font-weight: normal; text-rendering: geometricprecision;"><title>float32[11]</title><tspan style="font-weight: bold;">B</tspan><tspan>〈11〉</tspan></text><line class="node" x1="0" x2="100" y1="0" y2="0" style="stroke: rgb(51, 51, 51); fill: none; stroke-width: 1px;"/></g><path class="node border" d="M5,0h90a5,5 0 0 1 5,5v40a5,5 0 0 1 -5,5h-90a5,5 0 0 1 -5,-5v-40a5,5 0 0 1 5,-5z" style="stroke: rgb(51, 51, 51); fill: none; stroke-width: 1px;"/></g></g></g><g id="node-softmax_Transpose1" class="node graph-node" transform="translate(59.6640625,859)" style="opacity: 1;"><g transform="translate(-33.4296875,-10)"><g><g class="node-item node-item-type node-item-type-transform" transform="translate(0,0)"><path d="M5,0h56.859375a5,5 0 0 1 5,5v10a5,5 0 0 1 -5,5h-56.859375a5,5 0 0 1 -5,-5v-10a5,5 0 0 1 5,-5z" style="stroke: rgb(0, 0, 0); fill: rgb(51, 85, 68); stroke-width: 0;"/><text x="6" y="14" style="font-family: -apple-system, BlinkMacSystemFont, &quot;Segoe WPC&quot;, &quot;Segoe UI&quot;, Ubuntu, &quot;Droid Sans&quot;, sans-serif, &quot;PingFang SC&quot;; font-size: 11px; text-rendering: geometricprecision; fill: rgb(255, 255, 255);">Transpose</text><title>softmax_Transpose1</title></g><path class="node border" d="M5,0h56.859375a5,5 0 0 1 5,5v10a5,5 0 0 1 -5,5h-56.859375a5,5 0 0 1 -5,-5v-10a5,5 0 0 1 5,-5z" style="stroke: rgb(51, 51, 51); fill: none; stroke-width: 1px;"/></g></g></g><g id="node-softmax" class="node graph-node" transform="translate(59.6640625,899)" style="opacity: 1;"><g transform="translate(-29.1171875,-10)"><g><g class="node-item node-item-type node-item-type-activation" transform="translate(0,0)"><path d="M5,0h48.234375a5,5 0 0 1 5,5v10a5,5 0 0 1 -5,5h-48.234375a5,5 0 0 1 -5,-5v-10a5,5 0 0 1 5,-5z" style="stroke: rgb(0, 0, 0); fill: rgb(75, 27, 22); stroke-width: 0;"/><text x="6" y="14" style="font-family: -apple-system, BlinkMacSystemFont, &quot;Segoe WPC&quot;, &quot;Segoe UI&quot;, Ubuntu, &quot;Droid Sans&quot;, sans-serif, &quot;PingFang SC&quot;; font-size: 11px; text-rendering: geometricprecision; fill: rgb(255, 255, 255);">Softmax</text><title>softmax</title></g><path class="node border" d="M5,0h48.234375a5,5 0 0 1 5,5v10a5,5 0 0 1 -5,5h-48.234375a5,5 0 0 1 -5,-5v-10a5,5 0 0 1 5,-5z" style="stroke: rgb(51, 51, 51); fill: none; stroke-width: 1px;"/></g></g></g><g id="node-softmax_Transpose2" class="node graph-node" transform="translate(59.6640625,939)" style="opacity: 1;"><g transform="translate(-33.4296875,-10)"><g><g class="node-item node-item-type node-item-type-transform" transform="translate(0,0)"><path d="M5,0h56.859375a5,5 0 0 1 5,5v10a5,5 0 0 1 -5,5h-56.859375a5,5 0 0 1 -5,-5v-10a5,5 0 0 1 5,-5z" style="stroke: rgb(0, 0, 0); fill: rgb(51, 85, 68); stroke-width: 0;"/><text x="6" y="14" style="font-family: -apple-system, BlinkMacSystemFont, &quot;Segoe WPC&quot;, &quot;Segoe UI&quot;, Ubuntu, &quot;Droid Sans&quot;, sans-serif, &quot;PingFang SC&quot;; font-size: 11px; text-rendering: geometricprecision; fill: rgb(255, 255, 255);">Transpose</text><title>softmax_Transpose2</title></g><path class="node border" d="M5,0h56.859375a5,5 0 0 1 5,5v10a5,5 0 0 1 -5,5h-56.859375a5,5 0 0 1 -5,-5v-10a5,5 0 0 1 5,-5z" style="stroke: rgb(51, 51, 51); fill: none; stroke-width: 1px;"/></g></g></g><g class="node graph-input" transform="translate(59.6640625,10)" style="opacity: 1;"><g transform="translate(-36.703125,-10)"><g><g class="node-item graph-item-input" transform="translate(0,0)"><path d="M5,0h63.40625a5,5 0 0 1 5,5v10a5,5 0 0 1 -5,5h-63.40625a5,5 0 0 1 -5,-5v-10a5,5 0 0 1 5,-5z" style="stroke: rgb(0, 0, 0); fill: rgb(238, 238, 238); stroke-width: 0;"/><text x="6" y="14" style="font-family: -apple-system, BlinkMacSystemFont, &quot;Segoe WPC&quot;, &quot;Segoe UI&quot;, Ubuntu, &quot;Droid Sans&quot;, sans-serif, &quot;PingFang SC&quot;; font-size: 11px; text-rendering: geometricprecision;">imageinput</text><title>float32[1,1,64,84]</title></g><path class="node border" d="M5,0h63.40625a5,5 0 0 1 5,5v10a5,5 0 0 1 -5,5h-63.40625a5,5 0 0 1 -5,-5v-10a5,5 0 0 1 5,-5z" style="stroke: rgb(51, 51, 51); fill: none; stroke-width: 1px;"/></g></g></g><g class="node" transform="translate(59.6640625,1000)" style="opacity: 1;"><g transform="translate(-59.6640625,-10)"><g><g class="node-item graph-item-output" transform="translate(0,0)"><path d="M5,0h109.328125a5,5 0 0 1 5,5v10a5,5 0 0 1 -5,5h-109.328125a5,5 0 0 1 -5,-5v-10a5,5 0 0 1 5,-5z" style="stroke: rgb(0, 0, 0); fill: rgb(238, 238, 238); stroke-width: 0;"/><text x="6" y="14" style="font-family: -apple-system, BlinkMacSystemFont, &quot;Segoe WPC&quot;, &quot;Segoe UI&quot;, Ubuntu, &quot;Droid Sans&quot;, sans-serif, &quot;PingFang SC&quot;; font-size: 11px; text-rendering: geometricprecision;">softmax_Transpose2</text><title>float32[1,11,64,84]</title></g><path class="node border" d="M5,0h109.328125a5,5 0 0 1 5,5v10a5,5 0 0 1 -5,5h-109.328125a5,5 0 0 1 -5,-5v-10a5,5 0 0 1 5,-5z" style="stroke: rgb(51, 51, 51); fill: none; stroke-width: 1px;"/></g></g></g></g></g></svg>